<svg id="visual" viewBox="0 0 900 600" width="900" height="600" xmlns="http://www.w3.org/2000/svg" xmlns:xlink="http://www.w3.org/1999/xlink" version="1.1"><rect x="0" y="0" width="900" height="600" fill="#002233"></rect><path d="M0 523L21.5 505.8C43 488.7 86 454.3 128.8 454.7C171.7 455 214.3 490 257.2 506.8C300 523.7 343 522.3 385.8 517.7C428.7 513 471.3 505 514.2 491.7C557 478.3 600 459.7 642.8 454.5C685.7 449.3 728.3 457.7 771.2 470.3C814 483 857 500 878.5 508.5L900 517L900 601L878.5 601C857 601 814 601 771.2 601C728.3 601 685.7 601 642.8 601C600 601 557 601 514.2 601C471.3 601 428.7 601 385.8 601C343 601 300 601 257.2 601C214.3 601 171.7 601 128.8 601C86 601 43 601 21.5 601L0 601Z" fill="#0063f8" stroke-linecap="round" stroke-linejoin="miter"></path></svg>